<svg viewBox="3.693 189.391 595.22 483.639">
  <path d="M551.835 275.82c-18.415 8.19-38.256 13.715-59.062 16.177 21.244-12.717 37.544-32.862 45.215-56.874-19.87 11.782-41.867 20.348-65.3 24.957-18.76-19.98-45.478-32.476-75.054-32.476-56.773 0-102.76 46.038-102.76 102.83 0 8.04.915 15.893 2.646 23.432-85.463-4.293-161.26-45.224-211.93-107.44-8.852 15.16-13.908 32.843-13.908 51.686 0 35.69 18.11 67.17 45.724 85.596-16.84-.61-32.71-5.19-46.568-12.92v1.322c0 49.772 35.406 91.365 82.462 100.826-8.617 2.34-17.703 3.562-27.084 3.562-6.613 0-13.053-.61-19.33-1.83 13.093 40.838 51.074 70.606 96.043 71.422-35.205 27.572-79.503 44.004-127.688 44.004-8.302 0-16.482-.51-24.52-1.466 45.5 29.2 99.545 46.19 157.6 46.19 189.14 0 292.568-156.683 292.568-292.55 0-4.455-.1-8.9-.304-13.328 20.085-14.448 37.543-32.558 51.298-53.19l-.05.07z"/>
</svg>
